<svg width="48" height="102" viewBox="0 0 48 102" fill="none" xmlns="http://www.w3.org/2000/svg">
<rect opacity="0.1" x="-8.53027" y="10.6211" width="8" height="8" rx="4" transform="rotate(-18.6866 -8.53027 10.6211)" fill="#6C49B4"/>
<rect opacity="0.1" x="2.83496" y="6.77832" width="8" height="8" rx="4" transform="rotate(-18.6866 2.83496 6.77832)" fill="#6C49B4"/>
<rect opacity="0.1" x="14.2061" y="2.93164" width="8" height="8" rx="4" transform="rotate(-18.6866 14.2061 2.93164)" fill="#6C49B4"/>
<rect opacity="0.1" x="-4.68555" y="21.9863" width="8" height="8" rx="4" transform="rotate(-18.6866 -4.68555 21.9863)" fill="#6C49B4"/>
<rect opacity="0.1" x="6.67969" y="18.1436" width="8" height="8" rx="4" transform="rotate(-18.6866 6.67969 18.1436)" fill="#6C49B4"/>
<rect opacity="0.1" x="18.0508" y="14.2969" width="8" height="8" rx="4" transform="rotate(-18.6866 18.0508 14.2969)" fill="#6C49B4"/>
<rect opacity="0.1" x="-0.839844" y="33.3525" width="8" height="8" rx="4" transform="rotate(-18.6866 -0.839844 33.3525)" fill="#6C49B4"/>
<rect opacity="0.1" x="10.5254" y="29.5098" width="8" height="8" rx="4" transform="rotate(-18.6866 10.5254 29.5098)" fill="#6C49B4"/>
<rect opacity="0.1" x="21.8965" y="25.6631" width="8" height="8" rx="4" transform="rotate(-18.6866 21.8965 25.6631)" fill="#6C49B4"/>
<rect opacity="0.1" x="-8.36328" y="48.5684" width="8" height="8" rx="4" transform="rotate(-18.6866 -8.36328 48.5684)" fill="#6C49B4"/>
<rect opacity="0.1" x="3.00391" y="44.7227" width="8" height="8" rx="4" transform="rotate(-18.6866 3.00391 44.7227)" fill="#6C49B4"/>
<rect opacity="0.1" x="14.3691" y="40.8799" width="8" height="8" rx="4" transform="rotate(-18.6866 14.3691 40.8799)" fill="#6C49B4"/>
<rect opacity="0.1" x="25.7402" y="37.0332" width="8" height="8" rx="4" transform="rotate(-18.6866 25.7402 37.0332)" fill="#6C49B4"/>
<rect opacity="0.1" x="-4.51758" y="59.9336" width="8" height="8" rx="4" transform="rotate(-18.6866 -4.51758 59.9336)" fill="#6C49B4"/>
<rect opacity="0.1" x="6.84961" y="56.0879" width="8" height="8" rx="4" transform="rotate(-18.6866 6.84961 56.0879)" fill="#6C49B4"/>
<rect opacity="0.1" x="18.2148" y="52.2451" width="8" height="8" rx="4" transform="rotate(-18.6866 18.2148 52.2451)" fill="#6C49B4"/>
<rect opacity="0.1" x="29.5859" y="48.3984" width="8" height="8" rx="4" transform="rotate(-18.6866 29.5859 48.3984)" fill="#6C49B4"/>
<rect opacity="0.1" x="-0.671875" y="71.3008" width="8" height="8" rx="4" transform="rotate(-18.6866 -0.671875 71.3008)" fill="#6C49B4"/>
<rect opacity="0.1" x="10.6953" y="67.4551" width="8" height="8" rx="4" transform="rotate(-18.6866 10.6953 67.4551)" fill="#6C49B4"/>
<rect opacity="0.1" x="22.0605" y="63.6133" width="8" height="8" rx="4" transform="rotate(-18.6866 22.0605 63.6133)" fill="#6C49B4"/>
<rect opacity="0.1" x="33.4316" y="59.7656" width="8" height="8" rx="4" transform="rotate(-18.6866 33.4316 59.7656)" fill="#6C49B4"/>
<rect opacity="0.1" x="-8.20117" y="86.5156" width="8" height="8" rx="4" transform="rotate(-18.6866 -8.20117 86.5156)" fill="#6C49B4"/>
<rect opacity="0.1" x="3.16992" y="82.6689" width="8" height="8" rx="4" transform="rotate(-18.6866 3.16992 82.6689)" fill="#6C49B4"/>
<rect opacity="0.1" x="14.5371" y="78.8232" width="8" height="8" rx="4" transform="rotate(-18.6866 14.5371 78.8232)" fill="#6C49B4"/>
<rect opacity="0.1" x="25.9023" y="74.9814" width="8" height="8" rx="4" transform="rotate(-18.6866 25.9023 74.9814)" fill="#6C49B4"/>
<rect opacity="0.1" x="37.2734" y="71.1338" width="8" height="8" rx="4" transform="rotate(-18.6866 37.2734 71.1338)" fill="#6C49B4"/>
</svg>
