<svg width="388" height="139" viewBox="0 0 388 139" fill="none" xmlns="http://www.w3.org/2000/svg">
    <g clip-path="url(#clip0_3293_26471)">
        <path
            d="M147.006 33.6062V3.9858C147.006 3.45085 146.829 2.9378 146.512 2.55953C146.195 2.18126 145.766 1.96875 145.318 1.96875H108.177C99.421 1.96875 92.7385 2.61085 88.1296 3.89504C83.3061 5.14855 78.7239 7.4787 74.6239 10.7631C74.3466 10.9921 74.0176 11.1148 73.6806 11.1148C73.3435 11.1148 73.0145 10.9921 72.7373 10.7631C68.6642 7.50014 64.1121 5.18538 59.3201 3.94042C54.7085 2.65623 48.0259 2.01078 39.2725 2.00405H2.13158C1.68384 2.00405 1.25443 2.21656 0.937827 2.59483C0.621224 2.9731 0.443359 3.48615 0.443359 4.0211V134.555C0.443359 135.09 0.621224 135.603 0.937827 135.981C1.25443 136.359 1.68384 136.572 2.13158 136.572H41.0915C47.912 136.572 53.9459 135.809 59.1935 134.282C64.4397 132.744 68.9008 130.51 72.6275 127.535C72.9989 127.243 73.3704 126.93 73.7333 126.617C74.0921 126.94 74.455 127.243 74.8265 127.535C78.5363 130.51 83.0143 132.744 88.2605 134.282C93.5066 135.82 99.542 136.572 106.362 136.572H145.322C145.77 136.572 146.2 136.359 146.516 135.981C146.833 135.603 147.011 135.09 147.011 134.555V87.3556H146.973L146.947 63.8065C146.947 63.2715 146.769 62.7585 146.453 62.3802C146.136 62.002 145.707 61.7894 145.259 61.7894L109.629 61.8298C106.513 61.9038 103.546 63.4357 101.365 66.0963C99.1843 68.7568 97.9645 72.3335 97.9678 76.0573C97.9711 79.7811 99.1973 83.3546 101.383 86.0096C103.568 88.6646 106.538 90.189 109.654 90.2551H130.411C130.859 90.2551 131.288 90.4676 131.605 90.8459C131.922 91.2241 132.099 91.7372 132.099 92.2721V118.695C132.099 119.23 131.922 119.743 131.605 120.122C131.288 120.5 130.859 120.713 130.411 120.713H108.042C100.62 120.713 94.7911 119.892 90.5565 118.252C86.3359 116.578 82.9595 114.263 80.4693 111.258C77.5977 107.724 75.307 103.578 73.7164 99.0343C72.1281 103.576 69.8371 107.72 66.9636 111.248C64.4565 114.273 61.0928 116.578 56.8764 118.242C52.6601 119.906 46.8146 120.702 39.3907 120.702H17.0217C16.574 120.702 16.1446 120.49 15.828 120.112C15.5114 119.733 15.3335 119.22 15.3335 118.685V19.8852C15.3335 19.3503 15.5114 18.8372 15.828 18.4589C16.1446 18.0807 16.574 17.8682 17.0217 17.8682H39.0066C47.8698 17.8682 54.2977 18.7859 58.2903 20.6214C63.5013 23.0419 67.968 27.6643 71.6906 34.4887C71.9227 34.9223 72.1591 35.3661 72.387 35.8199C72.8708 36.7607 73.3118 37.732 73.708 38.7295C74.1301 37.721 74.5521 36.7377 75.0248 35.8098C75.2696 35.3358 75.5144 34.8769 75.7592 34.4231C79.4874 27.6357 83.9414 23.0385 89.1215 20.6315C93.1197 18.796 99.5491 17.8816 108.409 17.8883H130.39C130.838 17.8883 131.267 18.1008 131.584 18.4791C131.9 18.8574 132.078 19.3704 132.078 19.9054V33.6264C132.078 34.1613 132.256 34.6744 132.573 35.0526C132.889 35.4309 133.319 35.6434 133.767 35.6434H145.327C145.549 35.6421 145.769 35.5883 145.974 35.4851C146.179 35.3818 146.365 35.2313 146.521 35.042C146.677 34.8527 146.8 34.6284 146.884 34.382C146.967 34.1356 147.009 33.8719 147.006 33.6062ZM111.009 82.787C109.895 82.788 108.805 82.3941 107.878 81.6552C106.951 80.9164 106.228 79.8656 105.801 78.6359C105.374 77.4062 105.261 76.0527 105.478 74.7467C105.695 73.4406 106.231 72.2406 107.018 71.2984C107.805 70.3562 108.809 69.7142 109.902 69.4535C110.995 69.1927 112.127 69.3251 113.157 69.8336C114.187 70.3422 115.068 71.2043 115.688 72.3108C116.307 73.4173 116.639 74.7185 116.64 76.05C116.641 76.9342 116.496 77.81 116.213 78.6273C115.931 79.4446 115.516 80.1874 114.993 80.8131C114.471 81.4388 113.849 81.9352 113.166 82.2739C112.482 82.6126 111.749 82.787 111.009 82.787Z"
            fill="#F85862" />
        <path
            d="M243.682 14.3371C239.65 11.9334 235.039 10.7299 229.847 10.7266H210.243C209.795 10.7266 209.366 10.9391 209.049 11.3174C208.733 11.6956 208.555 12.2087 208.555 12.7436V66.8712C208.555 67.4062 208.733 67.9192 209.049 68.2975C209.366 68.6757 209.795 68.8883 210.243 68.8883H229.831C235.022 68.8883 239.633 67.6847 243.666 65.2777C247.552 63.0217 250.81 59.4723 253.048 55.0563C255.296 50.6457 256.42 45.5577 256.42 39.7923C256.42 34.0269 255.309 28.9456 253.086 24.5484C250.84 20.1333 247.575 16.5873 243.682 14.3371ZM245.105 50.3011C243.647 53.3223 241.468 55.7543 238.846 57.2852C235.912 58.9748 232.686 59.8128 229.43 59.7308H219.279C218.831 59.7308 218.402 59.5183 218.085 59.14C217.769 58.7618 217.591 58.2487 217.591 57.7138V21.8607C217.591 21.3257 217.769 20.8127 218.085 20.4344C218.402 20.0562 218.831 19.8436 219.279 19.8436H229.408C232.666 19.7598 235.893 20.6015 238.825 22.2994C241.447 23.8248 243.627 26.2538 245.084 29.2734C246.522 32.5088 247.274 36.1163 247.274 39.7797C247.274 43.4431 246.522 47.0506 245.084 50.286L245.105 50.3011Z"
            fill="#F85862" />
        <path
            d="M307.774 41.1344V61.3049C307.776 61.618 307.717 61.9273 307.601 62.2083C307.485 62.4892 307.316 62.7341 307.108 62.9236C304.653 65.0615 301.921 66.7037 299.021 67.7847C295.695 69.0555 292.223 69.6986 288.731 69.6908C284.057 69.7772 279.44 68.4503 275.31 65.8332C271.422 63.3709 268.175 59.6798 265.923 55.163C263.691 50.4804 262.518 45.1844 262.518 39.7956C262.518 34.4068 263.691 29.1108 265.923 24.4282C268.179 19.9004 271.439 16.2072 275.344 13.758C279.504 11.1383 284.148 9.80842 288.849 9.89028C292.653 9.83052 296.43 10.6472 299.975 12.2956C302.655 13.5654 305.101 15.4498 307.175 17.8425C307.34 18.0286 307.472 18.2526 307.563 18.501C307.654 18.7494 307.702 19.0172 307.704 19.2883C307.707 19.5595 307.663 19.8284 307.577 20.079C307.49 20.3297 307.362 20.5569 307.2 20.7471L303.79 24.7257C303.489 25.0694 303.089 25.2637 302.673 25.2693C302.256 25.2749 301.853 25.0914 301.545 24.7559C298.154 21.197 293.776 19.2751 289.263 19.3654C286.085 19.2971 282.943 20.1831 280.126 21.9422C277.511 23.5983 275.342 26.1054 273.871 29.1733C272.334 32.4069 271.554 36.0752 271.613 39.7931C271.565 43.4605 272.347 47.0753 273.875 50.2565C275.357 53.3353 277.521 55.8656 280.13 57.5683C282.91 59.3768 286.035 60.2925 289.2 60.2258C292.358 60.2943 295.485 59.4683 298.325 57.8154C298.595 57.6424 298.82 57.3849 298.977 57.0704C299.134 56.756 299.216 56.3964 299.215 56.0303V51.2701C299.215 50.7351 299.037 50.2221 298.721 49.8438C298.404 49.4655 297.975 49.253 297.527 49.253H290.538C290.09 49.253 289.661 49.0405 289.344 48.6623C289.027 48.284 288.849 47.7709 288.849 47.236V41.1344C288.849 40.5994 289.027 40.0864 289.344 39.7081C289.661 39.3299 290.09 39.1173 290.538 39.1173H306.103C306.548 39.1227 306.973 39.3375 307.286 39.7152C307.599 40.0929 307.774 40.6029 307.774 41.1344Z"
            fill="#F85862" />
        <path
            d="M177.073 138.733C176.098 138.733 175.305 137.967 175.305 137.013V2.08282C175.305 1.13481 176.098 0.363281 177.073 0.363281C178.048 0.363281 178.846 1.13481 178.846 2.08282V137.013C178.829 137.967 178.035 138.733 177.073 138.733Z"
            fill="#5CB85C" />
        <path
            d="M218.789 95.5639H210.348C209.901 95.5639 209.471 95.3514 209.155 94.9731C208.838 94.5948 208.66 94.0818 208.66 93.5468V91.2827C208.66 90.7477 208.838 90.2347 209.155 89.8564C209.471 89.4781 209.901 89.2656 210.348 89.2656H237.153C237.601 89.2656 238.03 89.4781 238.347 89.8564C238.663 90.2347 238.841 90.7477 238.841 91.2827V93.5468C238.841 94.0818 238.663 94.5948 238.347 94.9731C238.03 95.3514 237.601 95.5639 237.153 95.5639H228.712C228.264 95.5639 227.835 95.7764 227.518 96.1546C227.202 96.5329 227.024 97.046 227.024 97.5809V127.181C227.024 127.716 226.846 128.229 226.529 128.607C226.213 128.986 225.783 129.198 225.336 129.198H222.086C221.638 129.198 221.209 128.986 220.892 128.607C220.575 128.229 220.398 127.716 220.398 127.181V97.5658C220.395 97.0497 220.227 96.5544 219.927 96.182C219.628 95.8096 219.221 95.5884 218.789 95.5639Z"
            fill="#5CB85C" />
        <path
            d="M267.908 129.178C267.647 129.176 267.39 129.101 267.157 128.96C266.924 128.82 266.722 128.616 266.566 128.366L259.796 117.494C259.34 117.542 258.882 117.562 258.425 117.555H252.094C251.646 117.555 251.217 117.767 250.9 118.145C250.583 118.524 250.406 119.037 250.406 119.572V127.176C250.406 127.711 250.228 128.224 249.911 128.602C249.595 128.98 249.165 129.193 248.717 129.193H245.468C245.02 129.193 244.59 128.98 244.274 128.602C243.957 128.224 243.779 127.711 243.779 127.176V91.2926C243.779 90.7576 243.957 90.2446 244.274 89.8663C244.59 89.4881 245.02 89.2755 245.468 89.2755H258.412C261.162 89.2032 263.896 89.7843 266.456 90.985C268.573 91.9657 270.402 93.6684 271.715 95.8814C272.958 98.1195 273.596 100.76 273.543 103.445C273.611 105.828 273.11 108.184 272.098 110.238C271.086 112.292 269.605 113.959 267.828 115.043C267.602 115.165 267.403 115.347 267.245 115.576C267.086 115.804 266.974 116.072 266.916 116.36C266.858 116.648 266.855 116.948 266.909 117.237C266.962 117.526 267.07 117.797 267.224 118.029L272.154 125.935C272.335 126.234 272.443 126.587 272.468 126.954C272.493 127.322 272.432 127.69 272.294 128.02C272.156 128.35 271.944 128.628 271.683 128.824C271.422 129.02 271.121 129.127 270.812 129.132L267.908 129.178ZM264.68 97.611C263.188 96.2461 261.006 95.562 258.133 95.5586H252.09C251.642 95.5586 251.212 95.7711 250.896 96.1494C250.579 96.5277 250.401 97.0407 250.401 97.5757V109.471C250.401 110.006 250.579 110.519 250.896 110.898C251.212 111.276 251.642 111.488 252.09 111.488H258.133C261.009 111.488 263.191 110.794 264.68 109.406C266.168 108.017 266.914 106.051 266.916 103.506C266.916 100.944 266.171 98.9792 264.68 97.611Z"
            fill="#5CB85C" />
        <path
            d="M302.9 119.967H287.284C286.962 119.97 286.648 120.081 286.379 120.29C286.109 120.498 285.894 120.793 285.76 121.142L283.147 128.025C283.013 128.374 282.799 128.67 282.529 128.878C282.259 129.086 281.945 129.198 281.624 129.2H278.56C278.278 129.197 278.001 129.108 277.754 128.944C277.508 128.779 277.3 128.543 277.15 128.258C277 127.972 276.912 127.646 276.894 127.31C276.876 126.973 276.929 126.637 277.049 126.331L291.449 90.4276C291.587 90.0894 291.801 89.8041 292.067 89.6036C292.333 89.4031 292.641 89.2955 292.956 89.293H297.358C297.673 89.2955 297.981 89.4031 298.247 89.6036C298.513 89.8041 298.727 90.0894 298.865 90.4276L313.299 126.311C313.418 126.617 313.472 126.953 313.454 127.29C313.436 127.626 313.348 127.952 313.198 128.237C313.048 128.523 312.84 128.759 312.594 128.923C312.347 129.088 312.07 129.176 311.788 129.18H308.623C308.299 129.188 307.979 129.085 307.703 128.882C307.427 128.679 307.206 128.385 307.065 128.035L304.411 121.132C304.276 120.788 304.063 120.495 303.796 120.289C303.528 120.083 303.218 119.972 302.9 119.967ZM300.701 111.319L296.615 100.694C296.477 100.352 296.262 100.063 295.992 99.8608C295.723 99.6586 295.412 99.5513 295.094 99.5513C294.776 99.5513 294.464 99.6586 294.195 99.8608C293.926 100.063 293.71 100.352 293.572 100.694L289.52 111.319C289.407 111.624 289.359 111.958 289.381 112.291C289.402 112.624 289.493 112.945 289.644 113.226C289.795 113.507 290.002 113.739 290.246 113.901C290.49 114.062 290.765 114.149 291.044 114.153H299.177C299.459 114.151 299.735 114.064 299.982 113.901C300.228 113.738 300.437 113.504 300.588 113.221C300.74 112.937 300.829 112.613 300.849 112.277C300.869 111.941 300.818 111.605 300.701 111.299V111.319Z"
            fill="#5CB85C" />
        <path
            d="M318.95 91.2991C318.95 90.7642 319.128 90.2511 319.445 89.8728C319.761 89.4946 320.191 89.2821 320.638 89.2821H334.499C337.977 89.206 341.426 90.0515 344.598 91.758C347.396 93.2719 349.77 95.7134 351.44 98.7924C353.033 101.948 353.875 105.563 353.875 109.248C353.875 112.934 353.033 116.549 351.44 119.704C349.766 122.778 347.386 125.211 344.586 126.713C341.418 128.418 337.973 129.262 334.499 129.184H320.626C320.178 129.184 319.749 128.972 319.432 128.594C319.115 128.215 318.938 127.702 318.938 127.167L318.95 91.2991ZM334.178 122.916C336.548 122.977 338.899 122.401 341.057 121.232C342.944 120.21 344.535 118.543 345.628 116.442C346.677 114.246 347.228 111.761 347.228 109.233C347.228 106.705 346.677 104.221 345.628 102.025C344.533 99.9262 342.943 98.2613 341.057 97.2393C338.898 96.0743 336.547 95.5006 334.178 95.5601H327.222C326.775 95.5601 326.345 95.7726 326.029 96.1509C325.712 96.5292 325.534 97.0422 325.534 97.5772V120.925C325.534 121.46 325.712 121.973 326.029 122.351C326.345 122.729 326.775 122.942 327.222 122.942L334.178 122.916Z"
            fill="#5CB85C" />
        <path
            d="M387.537 124.969V127.178C387.537 127.713 387.359 128.226 387.042 128.604C386.725 128.982 386.296 129.195 385.848 129.195H362.559C362.112 129.195 361.682 128.982 361.366 128.604C361.049 128.226 360.871 127.713 360.871 127.178V91.2944C360.871 90.7594 361.049 90.2464 361.366 89.8681C361.682 89.4899 362.112 89.2773 362.559 89.2773H385.148C385.595 89.2773 386.025 89.4899 386.342 89.8681C386.658 90.2464 386.836 90.7594 386.836 91.2944V93.5031C386.836 94.038 386.658 94.5511 386.342 94.9293C386.025 95.3076 385.595 95.5201 385.148 95.5201H369.152C368.704 95.5201 368.275 95.7326 367.958 96.1109C367.641 96.4892 367.464 97.0022 367.464 97.5372V103.906C367.464 104.441 367.641 104.954 367.958 105.332C368.275 105.711 368.704 105.923 369.152 105.923H382.962C383.409 105.923 383.839 106.136 384.155 106.514C384.472 106.892 384.65 107.405 384.65 107.94V110.033C384.65 110.568 384.472 111.081 384.155 111.459C383.839 111.837 383.409 112.05 382.962 112.05H369.156C368.708 112.05 368.279 112.262 367.962 112.641C367.646 113.019 367.468 113.532 367.468 114.067V120.975C367.468 121.51 367.646 122.023 367.962 122.402C368.279 122.78 368.708 122.992 369.156 122.992H385.861C386.301 122.996 386.722 123.205 387.035 123.574C387.348 123.943 387.528 124.444 387.537 124.969Z"
            fill="#5CB85C" />
    </g>
    <defs>
        <clipPath id="clip0_3293_26471">
            <rect width="388" height="138" fill="white" transform="translate(0 0.5)" />
        </clipPath>
    </defs>
</svg>
    