<svg width="859" height="72" viewBox="0 0 859 72" fill="none" xmlns="http://www.w3.org/2000/svg">
<path d="M862.557 0H0.326336H-2.55738C-2.55738 0 -77.8033 86.4386 -2.55738 69.896C10.1109 67.1109 10.3535 61.5751 26.2798 61.5751C42.2061 61.5751 39.1906 69.896 55.1169 69.896C71.0433 69.896 68.0278 61.5751 83.9541 61.5751C99.8804 61.5751 96.865 69.896 112.791 69.896C128.718 69.896 125.702 61.5751 141.628 61.5751C157.555 61.5751 154.539 69.896 170.466 69.896C186.392 69.896 183.376 61.5751 199.303 61.5751C215.229 61.5751 212.214 69.896 228.14 69.896C244.066 69.896 241.051 61.5751 256.977 61.5751C272.903 61.5751 269.888 69.896 285.814 69.896C301.741 69.896 298.725 61.5751 314.651 61.5751C330.578 61.5751 327.562 69.896 343.489 69.896C359.415 69.896 356.399 61.5751 372.326 61.5751C388.252 61.5751 385.237 69.896 401.163 69.896C417.089 69.896 414.074 61.5751 430 61.5751C445.926 61.5751 442.911 69.896 458.837 69.896C474.764 69.896 471.748 61.5751 487.674 61.5751C503.601 61.5751 500.585 69.896 516.512 69.896C532.438 69.896 529.422 61.5751 545.349 61.5751C561.275 61.5751 558.26 69.896 574.186 69.896C590.112 69.896 587.097 61.5751 603.023 61.5751C618.949 61.5751 615.934 69.896 631.86 69.896C647.787 69.896 644.771 61.5751 660.697 61.5751C676.624 61.5751 673.608 69.896 689.535 69.896C705.461 69.896 702.445 61.5751 718.372 61.5751C734.298 61.5751 731.282 69.896 747.209 69.896C763.135 69.896 760.12 61.5751 776.046 61.5751C791.972 61.5751 788.957 69.896 804.883 69.896C820.809 69.896 817.794 61.5751 833.72 61.5751C849.647 61.5751 849.889 67.1109 862.557 69.896C937.803 86.4386 862.557 0 862.557 0Z" fill="url(#paint0_linear_3562_26303)"/>
<circle opacity="0.1" cx="287.934" cy="15.3251" r="4" transform="rotate(8.44196 287.934 15.3251)" fill="white"/>
<circle opacity="0.1" cx="301.145" cy="4.64853" r="2.5" transform="rotate(8.44196 301.145 4.64853)" fill="white"/>
<circle opacity="0.1" cx="275.847" cy="1.39787" r="6" transform="rotate(8.44196 275.847 1.39787)" fill="white"/>
<circle opacity="0.1" cx="264.432" cy="20.4292" r="8.5" transform="rotate(8.44196 264.432 20.4292)" fill="white"/>
<circle opacity="0.1" cx="286.826" cy="36.3902" r="11" transform="rotate(8.44196 286.826 36.3902)" fill="white"/>
<defs>
<linearGradient id="paint0_linear_3562_26303" x1="-1.5" y1="72" x2="856" y2="71.9999" gradientUnits="userSpaceOnUse">
<stop stop-color="#9E9AA3"/>
<stop offset="0.265625" stop-color="#686170" stop-opacity="0.65"/>
<stop offset="0.458333" stop-color="#9F9CA2" stop-opacity="0.869874"/>
<stop offset="0.671875" stop-color="#9E9AA3" stop-opacity="0.88"/>
<stop offset="1" stop-color="#CAC8CD" stop-opacity="0.9"/>
</linearGradient>
</defs>
</svg>
